<svg width="56" height="54" viewBox="0 0 56 54" fill="none" xmlns="http://www.w3.org/2000/svg">
<path d="M11.287 53.548C11.08 53.548 10.873 53.484 10.699 53.357C10.391 53.133 10.237 52.754 10.302 52.379L13.393 34.361L0.301994 21.602C0.0299936 21.336 -0.0680064 20.939 0.0489936 20.578C0.166994 20.216 0.479994 19.952 0.856994 19.897L18.947 17.268L27.038 0.875001C27.206 0.533001 27.554 0.317001 27.934 0.317001C28.315 0.317001 28.663 0.533001 28.83 0.875001L36.92 17.268L55.011 19.897C55.388 19.952 55.7 20.215 55.819 20.578C55.936 20.939 55.839 21.337 55.566 21.602L42.475 34.363L45.565 52.38C45.629 52.755 45.475 53.134 45.168 53.358C44.86 53.584 44.451 53.613 44.114 53.434L27.934 44.928L11.752 53.434C11.606 53.51 11.446 53.548 11.287 53.548ZM3.14899 21.584L15.165 33.297C15.4 33.526 15.508 33.858 15.452 34.182L12.615 50.72L27.469 42.912C27.76 42.758 28.107 42.758 28.4 42.912L43.252 50.72L40.416 34.182C40.36 33.858 40.468 33.527 40.703 33.297L52.719 21.584L36.114 19.171C35.788 19.124 35.507 18.919 35.361 18.624L27.934 3.578L20.507 18.625C20.361 18.92 20.08 19.125 19.754 19.172L3.14899 21.584Z" fill="#54ADFF"/>
<path d="M11.287 53.548C11.08 53.548 10.873 53.484 10.699 53.357C10.391 53.133 10.237 52.754 10.302 52.379L13.393 34.361L0.301994 21.602C0.0299936 21.336 -0.0680064 20.939 0.0489936 20.578C0.166994 20.216 0.479994 19.952 0.856994 19.897L18.947 17.268L27.038 0.875001C27.206 0.533001 27.554 0.317001 27.934 0.317001C28.315 0.317001 28.663 0.533001 28.83 0.875001L36.92 17.268L55.011 19.897C55.388 19.952 55.7 20.215 55.819 20.578C55.936 20.939 55.839 21.337 55.566 21.602L42.475 34.363L45.565 52.38C45.629 52.755 45.475 53.134 45.168 53.358C44.86 53.584 44.451 53.613 44.114 53.434L27.934 44.928L11.752 53.434C11.606 53.51 11.446 53.548 11.287 53.548ZM3.14899 21.584L15.165 33.297C15.4 33.526 15.508 33.858 15.452 34.182L12.615 50.72L27.469 42.912C27.76 42.758 28.107 42.758 28.4 42.912L43.252 50.72L40.416 34.182C40.36 33.858 40.468 33.527 40.703 33.297L52.719 21.584L36.114 19.171C35.788 19.124 35.507 18.919 35.361 18.624L27.934 3.578L20.507 18.625C20.361 18.92 20.08 19.125 19.754 19.172L3.14899 21.584Z" fill="url(#paint0_linear)"/>
<path d="M3.14899 21.584L15.165 33.297C15.4 33.526 15.508 33.858 15.452 34.182L12.615 50.72L27.469 42.912C27.76 42.758 28.107 42.758 28.4 42.912L43.252 50.72L40.416 34.182C40.36 33.858 40.468 33.527 40.703 33.297L52.719 21.584L36.114 19.171C35.788 19.124 35.507 18.919 35.361 18.624L27.934 3.578L20.507 18.625C20.361 18.92 20.08 19.125 19.754 19.172L3.14899 21.584Z" fill="#54ADFF"/>
<path d="M3.14899 21.584L15.165 33.297C15.4 33.526 15.508 33.858 15.452 34.182L12.615 50.72L27.469 42.912C27.76 42.758 28.107 42.758 28.4 42.912L43.252 50.72L40.416 34.182C40.36 33.858 40.468 33.527 40.703 33.297L52.719 21.584L36.114 19.171C35.788 19.124 35.507 18.919 35.361 18.624L27.934 3.578L20.507 18.625C20.361 18.92 20.08 19.125 19.754 19.172L3.14899 21.584Z" fill="url(#paint1_linear)"/>
<defs>
<linearGradient id="paint0_linear" x1="27.9341" y1="0.317001" x2="27.9341" y2="53.5504" gradientUnits="userSpaceOnUse">
<stop stop-color="white"/>
<stop offset="1" stop-color="white" stop-opacity="0"/>
</linearGradient>
<linearGradient id="paint1_linear" x1="27.9341" y1="0.317001" x2="27.9341" y2="53.5504" gradientUnits="userSpaceOnUse">
<stop stop-color="white"/>
<stop offset="1" stop-color="white" stop-opacity="0"/>
</linearGradient>
</defs>
</svg>
